<svg xmlns="http://www.w3.org/2000/svg" xmlns:xlink="http://www.w3.org/1999/xlink" width="200" zoomAndPan="magnify" viewBox="0 0 150 74.999997" height="100" preserveAspectRatio="xMidYMid meet" version="1.0"><defs><g/><clipPath id="9557e04378"><path d="M 25.769531 25 L 123 25 L 123 51 L 25.769531 51 Z M 25.769531 25 " clip-rule="nonzero"/></clipPath><clipPath id="0443f23eae"><path d="M 25.769531 21.546875 L 124.273438 21.546875 L 124.273438 51.035156 L 25.769531 51.035156 Z M 25.769531 21.546875 " clip-rule="nonzero"/></clipPath><clipPath id="18b2323e57"><path d="M 29 25 L 123 25 L 123 51.035156 L 29 51.035156 Z M 29 25 " clip-rule="nonzero"/></clipPath></defs><g fill="#000000" fill-opacity="0.4"><g transform="translate(1.032737, 18.277431)"><g><path d="M 6.109375 -1.359375 L 6.109375 0 L 4.75 0 L 4.75 -1.359375 Z M 0.671875 -1.359375 L 0.671875 -9.515625 L 2.03125 -9.515625 L 2.03125 -1.359375 Z M 2.03125 0 L 2.03125 -1.359375 L 3.390625 -1.359375 L 3.390625 0 Z M 3.390625 -1.359375 L 3.390625 -4.078125 L 4.75 -4.078125 L 4.75 -1.359375 Z M 6.109375 -1.359375 L 6.109375 -9.515625 L 7.46875 -9.515625 L 7.46875 -1.359375 Z M 6.109375 -1.359375 "/></g></g></g><g fill="#000000" fill-opacity="0.4"><g transform="translate(9.18447, 18.277431)"><g><path d="M 0.671875 0 L 0.671875 -9.515625 L 2.03125 -9.515625 L 2.03125 -5.4375 L 3.390625 -5.4375 L 3.390625 -4.078125 L 2.03125 -4.078125 L 2.03125 0 Z M 3.390625 -5.4375 L 3.390625 -6.796875 L 6.109375 -6.796875 L 6.109375 -5.4375 Z M 6.109375 0 L 6.109375 -5.4375 L 7.46875 -5.4375 L 7.46875 0 Z M 6.109375 0 "/></g></g></g><g fill="#000000" fill-opacity="0.4"><g transform="translate(17.336202, 18.277431)"><g><path d="M 2.03125 0 L 2.03125 -1.359375 L 6.109375 -1.359375 L 6.109375 -2.71875 L 2.03125 -2.71875 L 2.03125 -4.078125 L 6.109375 -4.078125 L 6.109375 -5.4375 L 7.46875 -5.4375 L 7.46875 0 Z M 0.671875 -1.359375 L 0.671875 -2.71875 L 2.03125 -2.71875 L 2.03125 -1.359375 Z M 2.03125 -5.4375 L 2.03125 -6.796875 L 6.109375 -6.796875 L 6.109375 -5.4375 Z M 2.03125 -5.4375 "/></g></g></g><g fill="#000000" fill-opacity="0.4"><g transform="translate(25.487934, 18.277431)"><g><path d="M 0.671875 -1.359375 L 0.671875 -9.515625 L 2.03125 -9.515625 L 2.03125 -6.796875 L 4.75 -6.796875 L 4.75 -5.4375 L 2.03125 -5.4375 L 2.03125 -1.359375 Z M 2.03125 0 L 2.03125 -1.359375 L 4.75 -1.359375 L 4.75 0 Z M 2.03125 0 "/></g></g></g><g fill="#000000" fill-opacity="0.4"><g transform="translate(30.922417, 18.277431)"><g/></g></g><g fill="#000000" fill-opacity="0.4"><g transform="translate(34.318962, 18.277431)"><g><path d="M 0.671875 -1.359375 L 0.671875 -9.515625 L 2.03125 -9.515625 L 2.03125 -6.796875 L 4.75 -6.796875 L 4.75 -5.4375 L 2.03125 -5.4375 L 2.03125 -1.359375 Z M 2.03125 0 L 2.03125 -1.359375 L 4.75 -1.359375 L 4.75 0 Z M 2.03125 0 "/></g></g></g><g fill="#000000" fill-opacity="0.4"><g transform="translate(39.753445, 18.277431)"><g><path d="M 6.109375 1.359375 L 6.109375 2.71875 L 2.03125 2.71875 L 2.03125 1.359375 Z M 0.671875 -1.359375 L 0.671875 -6.796875 L 2.03125 -6.796875 L 2.03125 -1.359375 Z M 2.03125 0 L 2.03125 -1.359375 L 6.109375 -1.359375 L 6.109375 -6.796875 L 7.46875 -6.796875 L 7.46875 1.359375 L 6.109375 1.359375 L 6.109375 0 Z M 2.03125 0 "/></g></g></g><g fill="#000000" fill-opacity="0.4"><g transform="translate(47.905177, 18.277431)"><g><path d="M 0.671875 2.71875 L 0.671875 -6.796875 L 6.109375 -6.796875 L 6.109375 -5.4375 L 2.03125 -5.4375 L 2.03125 -1.359375 L 6.109375 -1.359375 L 6.109375 0 L 2.03125 0 L 2.03125 2.71875 Z M 6.109375 -1.359375 L 6.109375 -5.4375 L 7.46875 -5.4375 L 7.46875 -1.359375 Z M 6.109375 -1.359375 "/></g></g></g><g fill="#000000" fill-opacity="0.4"><g transform="translate(56.056909, 18.277431)"><g><path d="M 0.671875 -1.359375 L 0.671875 -5.4375 L 2.03125 -5.4375 L 2.03125 -4.078125 L 6.109375 -4.078125 L 6.109375 -2.71875 L 2.03125 -2.71875 L 2.03125 -1.359375 Z M 2.03125 0 L 2.03125 -1.359375 L 6.109375 -1.359375 L 6.109375 0 Z M 2.03125 -5.4375 L 2.03125 -6.796875 L 6.109375 -6.796875 L 6.109375 -5.4375 Z M 6.109375 -4.078125 L 6.109375 -5.4375 L 7.46875 -5.4375 L 7.46875 -4.078125 Z M 6.109375 -4.078125 "/></g></g></g><g fill="#000000" fill-opacity="0.4"><g transform="translate(64.208642, 18.277431)"><g/></g></g><g fill="#000000" fill-opacity="0.4"><g transform="translate(67.605187, 18.277431)"><g><path d="M 6.109375 -1.359375 L 6.109375 0 L 2.03125 0 L 2.03125 -1.359375 Z M 0.671875 -1.359375 L 0.671875 -5.4375 L 2.03125 -5.4375 L 2.03125 -1.359375 Z M 2.03125 -5.4375 L 2.03125 -6.796875 L 6.109375 -6.796875 L 6.109375 -5.4375 Z M 6.109375 -1.359375 L 6.109375 -5.4375 L 7.46875 -5.4375 L 7.46875 -1.359375 Z M 6.109375 -1.359375 "/></g></g></g><g fill="#000000" fill-opacity="0.4"><g transform="translate(75.756919, 18.277431)"><g><path d="M 0.671875 0 L 0.671875 -8.15625 L 2.03125 -8.15625 L 2.03125 -6.796875 L 4.75 -6.796875 L 4.75 -5.4375 L 2.03125 -5.4375 L 2.03125 0 Z M 2.03125 -8.15625 L 2.03125 -9.515625 L 4.75 -9.515625 L 4.75 -8.15625 Z M 2.03125 -8.15625 "/></g></g></g><g fill="#000000" fill-opacity="1"><g transform="translate(0.000003, 17.244696)"><g><path d="M 6.109375 -1.359375 L 6.109375 0 L 4.75 0 L 4.75 -1.359375 Z M 0.671875 -1.359375 L 0.671875 -9.515625 L 2.03125 -9.515625 L 2.03125 -1.359375 Z M 2.03125 0 L 2.03125 -1.359375 L 3.390625 -1.359375 L 3.390625 0 Z M 3.390625 -1.359375 L 3.390625 -4.078125 L 4.75 -4.078125 L 4.75 -1.359375 Z M 6.109375 -1.359375 L 6.109375 -9.515625 L 7.46875 -9.515625 L 7.46875 -1.359375 Z M 6.109375 -1.359375 "/></g></g></g><g fill="#000000" fill-opacity="1"><g transform="translate(8.151735, 17.244696)"><g><path d="M 0.671875 0 L 0.671875 -9.515625 L 2.03125 -9.515625 L 2.03125 -5.4375 L 3.390625 -5.4375 L 3.390625 -4.078125 L 2.03125 -4.078125 L 2.03125 0 Z M 3.390625 -5.4375 L 3.390625 -6.796875 L 6.109375 -6.796875 L 6.109375 -5.4375 Z M 6.109375 0 L 6.109375 -5.4375 L 7.46875 -5.4375 L 7.46875 0 Z M 6.109375 0 "/></g></g></g><g fill="#000000" fill-opacity="1"><g transform="translate(16.303468, 17.244696)"><g><path d="M 2.03125 0 L 2.03125 -1.359375 L 6.109375 -1.359375 L 6.109375 -2.71875 L 2.03125 -2.71875 L 2.03125 -4.078125 L 6.109375 -4.078125 L 6.109375 -5.4375 L 7.46875 -5.4375 L 7.46875 0 Z M 0.671875 -1.359375 L 0.671875 -2.71875 L 2.03125 -2.71875 L 2.03125 -1.359375 Z M 2.03125 -5.4375 L 2.03125 -6.796875 L 6.109375 -6.796875 L 6.109375 -5.4375 Z M 2.03125 -5.4375 "/></g></g></g><g fill="#000000" fill-opacity="1"><g transform="translate(24.4552, 17.244696)"><g><path d="M 0.671875 -1.359375 L 0.671875 -9.515625 L 2.03125 -9.515625 L 2.03125 -6.796875 L 4.75 -6.796875 L 4.75 -5.4375 L 2.03125 -5.4375 L 2.03125 -1.359375 Z M 2.03125 0 L 2.03125 -1.359375 L 4.75 -1.359375 L 4.75 0 Z M 2.03125 0 "/></g></g></g><g fill="#000000" fill-opacity="1"><g transform="translate(29.889683, 17.244696)"><g/></g></g><g fill="#000000" fill-opacity="1"><g transform="translate(33.286228, 17.244696)"><g><path d="M 0.671875 -1.359375 L 0.671875 -9.515625 L 2.03125 -9.515625 L 2.03125 -6.796875 L 4.75 -6.796875 L 4.75 -5.4375 L 2.03125 -5.4375 L 2.03125 -1.359375 Z M 2.03125 0 L 2.03125 -1.359375 L 4.75 -1.359375 L 4.75 0 Z M 2.03125 0 "/></g></g></g><g fill="#000000" fill-opacity="1"><g transform="translate(38.72071, 17.244696)"><g><path d="M 6.109375 1.359375 L 6.109375 2.71875 L 2.03125 2.71875 L 2.03125 1.359375 Z M 0.671875 -1.359375 L 0.671875 -6.796875 L 2.03125 -6.796875 L 2.03125 -1.359375 Z M 2.03125 0 L 2.03125 -1.359375 L 6.109375 -1.359375 L 6.109375 -6.796875 L 7.46875 -6.796875 L 7.46875 1.359375 L 6.109375 1.359375 L 6.109375 0 Z M 2.03125 0 "/></g></g></g><g fill="#000000" fill-opacity="1"><g transform="translate(46.872443, 17.244696)"><g><path d="M 0.671875 2.71875 L 0.671875 -6.796875 L 6.109375 -6.796875 L 6.109375 -5.4375 L 2.03125 -5.4375 L 2.03125 -1.359375 L 6.109375 -1.359375 L 6.109375 0 L 2.03125 0 L 2.03125 2.71875 Z M 6.109375 -1.359375 L 6.109375 -5.4375 L 7.46875 -5.4375 L 7.46875 -1.359375 Z M 6.109375 -1.359375 "/></g></g></g><g fill="#000000" fill-opacity="1"><g transform="translate(55.024175, 17.244696)"><g><path d="M 0.671875 -1.359375 L 0.671875 -5.4375 L 2.03125 -5.4375 L 2.03125 -4.078125 L 6.109375 -4.078125 L 6.109375 -2.71875 L 2.03125 -2.71875 L 2.03125 -1.359375 Z M 2.03125 0 L 2.03125 -1.359375 L 6.109375 -1.359375 L 6.109375 0 Z M 2.03125 -5.4375 L 2.03125 -6.796875 L 6.109375 -6.796875 L 6.109375 -5.4375 Z M 6.109375 -4.078125 L 6.109375 -5.4375 L 7.46875 -5.4375 L 7.46875 -4.078125 Z M 6.109375 -4.078125 "/></g></g></g><g fill="#000000" fill-opacity="1"><g transform="translate(63.175907, 17.244696)"><g/></g></g><g fill="#000000" fill-opacity="1"><g transform="translate(66.572452, 17.244696)"><g><path d="M 6.109375 -1.359375 L 6.109375 0 L 2.03125 0 L 2.03125 -1.359375 Z M 0.671875 -1.359375 L 0.671875 -5.4375 L 2.03125 -5.4375 L 2.03125 -1.359375 Z M 2.03125 -5.4375 L 2.03125 -6.796875 L 6.109375 -6.796875 L 6.109375 -5.4375 Z M 6.109375 -1.359375 L 6.109375 -5.4375 L 7.46875 -5.4375 L 7.46875 -1.359375 Z M 6.109375 -1.359375 "/></g></g></g><g fill="#000000" fill-opacity="1"><g transform="translate(74.724185, 17.244696)"><g><path d="M 0.671875 0 L 0.671875 -8.15625 L 2.03125 -8.15625 L 2.03125 -6.796875 L 4.75 -6.796875 L 4.75 -5.4375 L 2.03125 -5.4375 L 2.03125 0 Z M 2.03125 -8.15625 L 2.03125 -9.515625 L 4.75 -9.515625 L 4.75 -8.15625 Z M 2.03125 -8.15625 "/></g></g></g><g fill="#000000" fill-opacity="0.4"><g transform="translate(93.291756, 65.581076)"><g><path d="M 2.03125 0 L 2.03125 -1.359375 L 6.109375 -1.359375 L 6.109375 -2.71875 L 2.03125 -2.71875 L 2.03125 -4.078125 L 6.109375 -4.078125 L 6.109375 -5.4375 L 7.46875 -5.4375 L 7.46875 0 Z M 0.671875 -1.359375 L 0.671875 -2.71875 L 2.03125 -2.71875 L 2.03125 -1.359375 Z M 2.03125 -5.4375 L 2.03125 -6.796875 L 6.109375 -6.796875 L 6.109375 -5.4375 Z M 2.03125 -5.4375 "/></g></g></g><g fill="#000000" fill-opacity="0.4"><g transform="translate(101.443489, 65.581076)"><g><path d="M 0.671875 0 L 0.671875 -6.796875 L 2.03125 -6.796875 L 2.03125 -5.4375 L 3.390625 -5.4375 L 3.390625 -4.078125 L 2.03125 -4.078125 L 2.03125 0 Z M 3.390625 -5.4375 L 3.390625 -6.796875 L 6.109375 -6.796875 L 6.109375 -5.4375 Z M 3.390625 -5.4375 "/></g></g></g><g fill="#000000" fill-opacity="0.4"><g transform="translate(108.236596, 65.581076)"><g><path d="M 0.671875 -1.359375 L 0.671875 -5.4375 L 2.03125 -5.4375 L 2.03125 -4.078125 L 6.109375 -4.078125 L 6.109375 -2.71875 L 2.03125 -2.71875 L 2.03125 -1.359375 Z M 2.03125 0 L 2.03125 -1.359375 L 6.109375 -1.359375 L 6.109375 0 Z M 2.03125 -5.4375 L 2.03125 -6.796875 L 6.109375 -6.796875 L 6.109375 -5.4375 Z M 6.109375 -4.078125 L 6.109375 -5.4375 L 7.46875 -5.4375 L 7.46875 -4.078125 Z M 6.109375 -4.078125 "/></g></g></g><g fill="#000000" fill-opacity="0.4"><g transform="translate(116.388328, 65.581076)"><g/></g></g><g fill="#000000" fill-opacity="0.4"><g transform="translate(119.784873, 65.581076)"><g><path d="M 6.109375 1.359375 L 6.109375 2.71875 L 2.03125 2.71875 L 2.03125 1.359375 Z M 0.671875 -1.359375 L 0.671875 -6.796875 L 2.03125 -6.796875 L 2.03125 -1.359375 Z M 2.03125 0 L 2.03125 -1.359375 L 6.109375 -1.359375 L 6.109375 -6.796875 L 7.46875 -6.796875 L 7.46875 1.359375 L 6.109375 1.359375 L 6.109375 0 Z M 2.03125 0 "/></g></g></g><g fill="#000000" fill-opacity="0.4"><g transform="translate(127.936606, 65.581076)"><g><path d="M 6.109375 -1.359375 L 6.109375 0 L 2.03125 0 L 2.03125 -1.359375 Z M 0.671875 -1.359375 L 0.671875 -5.4375 L 2.03125 -5.4375 L 2.03125 -1.359375 Z M 2.03125 -5.4375 L 2.03125 -6.796875 L 6.109375 -6.796875 L 6.109375 -5.4375 Z M 6.109375 -1.359375 L 6.109375 -5.4375 L 7.46875 -5.4375 L 7.46875 -1.359375 Z M 6.109375 -1.359375 "/></g></g></g><g fill="#000000" fill-opacity="0.4"><g transform="translate(136.088338, 65.581076)"><g><path d="M 6.109375 -1.359375 L 6.109375 0 L 2.03125 0 L 2.03125 -1.359375 Z M 0.671875 -1.359375 L 0.671875 -6.796875 L 2.03125 -6.796875 L 2.03125 -1.359375 Z M 6.109375 -1.359375 L 6.109375 -6.796875 L 7.46875 -6.796875 L 7.46875 -1.359375 Z M 6.109375 -1.359375 "/></g></g></g><g fill="#000000" fill-opacity="0.4"><g transform="translate(144.240071, 65.581076)"><g><path d="M 2.03125 -2.71875 L 2.03125 -5.4375 L 4.75 -5.4375 L 4.75 -4.078125 L 3.390625 -4.078125 L 3.390625 -2.71875 Z M 0.671875 -6.796875 L 0.671875 -8.15625 L 2.03125 -8.15625 L 2.03125 -6.796875 Z M 2.03125 0 L 2.03125 -1.359375 L 3.390625 -1.359375 L 3.390625 0 Z M 2.03125 -8.15625 L 2.03125 -9.515625 L 4.75 -9.515625 L 4.75 -8.15625 Z M 4.75 -5.4375 L 4.75 -8.15625 L 6.109375 -8.15625 L 6.109375 -5.4375 Z M 4.75 -5.4375 "/></g></g></g><g fill="#000000" fill-opacity="1"><g transform="translate(92.259019, 64.548344)"><g><path d="M 2.03125 0 L 2.03125 -1.359375 L 6.109375 -1.359375 L 6.109375 -2.71875 L 2.03125 -2.71875 L 2.03125 -4.078125 L 6.109375 -4.078125 L 6.109375 -5.4375 L 7.46875 -5.4375 L 7.46875 0 Z M 0.671875 -1.359375 L 0.671875 -2.71875 L 2.03125 -2.71875 L 2.03125 -1.359375 Z M 2.03125 -5.4375 L 2.03125 -6.796875 L 6.109375 -6.796875 L 6.109375 -5.4375 Z M 2.03125 -5.4375 "/></g></g></g><g fill="#000000" fill-opacity="1"><g transform="translate(100.410752, 64.548344)"><g><path d="M 0.671875 0 L 0.671875 -6.796875 L 2.03125 -6.796875 L 2.03125 -5.4375 L 3.390625 -5.4375 L 3.390625 -4.078125 L 2.03125 -4.078125 L 2.03125 0 Z M 3.390625 -5.4375 L 3.390625 -6.796875 L 6.109375 -6.796875 L 6.109375 -5.4375 Z M 3.390625 -5.4375 "/></g></g></g><g fill="#000000" fill-opacity="1"><g transform="translate(107.203859, 64.548344)"><g><path d="M 0.671875 -1.359375 L 0.671875 -5.4375 L 2.03125 -5.4375 L 2.03125 -4.078125 L 6.109375 -4.078125 L 6.109375 -2.71875 L 2.03125 -2.71875 L 2.03125 -1.359375 Z M 2.03125 0 L 2.03125 -1.359375 L 6.109375 -1.359375 L 6.109375 0 Z M 2.03125 -5.4375 L 2.03125 -6.796875 L 6.109375 -6.796875 L 6.109375 -5.4375 Z M 6.109375 -4.078125 L 6.109375 -5.4375 L 7.46875 -5.4375 L 7.46875 -4.078125 Z M 6.109375 -4.078125 "/></g></g></g><g fill="#000000" fill-opacity="1"><g transform="translate(115.355592, 64.548344)"><g/></g></g><g fill="#000000" fill-opacity="1"><g transform="translate(118.752137, 64.548344)"><g><path d="M 6.109375 1.359375 L 6.109375 2.71875 L 2.03125 2.71875 L 2.03125 1.359375 Z M 0.671875 -1.359375 L 0.671875 -6.796875 L 2.03125 -6.796875 L 2.03125 -1.359375 Z M 2.03125 0 L 2.03125 -1.359375 L 6.109375 -1.359375 L 6.109375 -6.796875 L 7.46875 -6.796875 L 7.46875 1.359375 L 6.109375 1.359375 L 6.109375 0 Z M 2.03125 0 "/></g></g></g><g fill="#000000" fill-opacity="1"><g transform="translate(126.903869, 64.548344)"><g><path d="M 6.109375 -1.359375 L 6.109375 0 L 2.03125 0 L 2.03125 -1.359375 Z M 0.671875 -1.359375 L 0.671875 -5.4375 L 2.03125 -5.4375 L 2.03125 -1.359375 Z M 2.03125 -5.4375 L 2.03125 -6.796875 L 6.109375 -6.796875 L 6.109375 -5.4375 Z M 6.109375 -1.359375 L 6.109375 -5.4375 L 7.46875 -5.4375 L 7.46875 -1.359375 Z M 6.109375 -1.359375 "/></g></g></g><g fill="#000000" fill-opacity="1"><g transform="translate(135.055602, 64.548344)"><g><path d="M 6.109375 -1.359375 L 6.109375 0 L 2.03125 0 L 2.03125 -1.359375 Z M 0.671875 -1.359375 L 0.671875 -6.796875 L 2.03125 -6.796875 L 2.03125 -1.359375 Z M 6.109375 -1.359375 L 6.109375 -6.796875 L 7.46875 -6.796875 L 7.46875 -1.359375 Z M 6.109375 -1.359375 "/></g></g></g><g fill="#000000" fill-opacity="1"><g transform="translate(143.207334, 64.548344)"><g><path d="M 2.03125 -2.71875 L 2.03125 -5.4375 L 4.75 -5.4375 L 4.75 -4.078125 L 3.390625 -4.078125 L 3.390625 -2.71875 Z M 0.671875 -6.796875 L 0.671875 -8.15625 L 2.03125 -8.15625 L 2.03125 -6.796875 Z M 2.03125 0 L 2.03125 -1.359375 L 3.390625 -1.359375 L 3.390625 0 Z M 2.03125 -8.15625 L 2.03125 -9.515625 L 4.75 -9.515625 L 4.75 -8.15625 Z M 4.75 -5.4375 L 4.75 -8.15625 L 6.109375 -8.15625 L 6.109375 -5.4375 Z M 4.75 -5.4375 "/></g></g></g><g clip-path="url(#9557e04378)"><path fill="#474743" d="M 122.296875 29.253906 L 120.34375 29.253906 L 120.34375 27.277344 L 118.378906 27.277344 L 118.378906 25.300781 L 29.78125 25.300781 L 29.78125 27.277344 L 27.8125 27.277344 L 27.8125 29.253906 L 25.84375 29.253906 L 25.84375 46.0625 L 26.453125 46.0625 L 26.453125 47.03125 L 27.8125 47.03125 L 27.8125 48.039062 L 28.421875 48.039062 L 28.421875 49.007812 L 29.78125 49.007812 L 29.78125 50.015625 L 118.359375 50.015625 L 118.359375 48.039062 L 120.328125 48.039062 L 120.328125 46.0625 L 122.296875 46.0625 Z M 118.988281 42.75 L 117.019531 42.75 L 117.019531 44.722656 L 115.046875 44.722656 L 115.046875 46.699219 L 31.734375 46.699219 L 31.734375 44.722656 L 29.761719 44.722656 L 29.761719 42.75 L 27.796875 42.75 L 27.796875 30.261719 L 29.761719 30.261719 L 29.761719 28.285156 L 31.734375 28.285156 L 31.734375 26.308594 L 115.046875 26.308594 L 115.046875 28.285156 L 117.019531 28.285156 L 117.019531 30.261719 L 118.988281 30.261719 Z M 118.988281 42.75 " fill-opacity="1" fill-rule="nonzero"/></g><g clip-path="url(#0443f23eae)"><path fill="#1d1d1b" d="M 110.664062 21.546875 L 110.664062 23.800781 L 108.417969 23.800781 L 108.417969 25.253906 L 29.730469 25.253906 L 29.730469 27.226562 L 27.765625 27.226562 L 27.765625 29.203125 L 25.792969 29.203125 L 25.792969 47.082031 L 27.765625 47.082031 L 27.765625 49.058594 L 29.730469 49.058594 L 29.730469 51.035156 L 118.429688 51.035156 L 118.429688 49.058594 L 120.394531 49.058594 L 120.394531 47.082031 L 122.367188 47.082031 L 122.367188 30.664062 L 124.25 30.664062 L 124.25 23.800781 L 122.003906 23.800781 L 122.003906 21.546875 L 117.40625 21.546875 L 117.40625 23.800781 L 115.261719 23.800781 L 115.261719 21.546875 Z M 117.507812 35.175781 L 117.507812 32.921875 L 120.296875 32.921875 L 120.296875 45.007812 L 118.328125 45.007812 L 118.328125 46.980469 L 116.359375 46.980469 L 116.359375 48.957031 L 31.804688 48.957031 L 31.804688 46.980469 L 29.832031 46.980469 L 29.832031 45.007812 L 27.863281 45.007812 L 27.863281 31.277344 L 29.832031 31.277344 L 29.832031 29.304688 L 31.804688 29.304688 L 31.804688 27.328125 L 108.417969 27.328125 L 108.417969 30.664062 L 110.664062 30.664062 L 110.664062 32.921875 L 115.160156 32.921875 L 115.160156 35.175781 Z M 117.507812 35.175781 " fill-opacity="1" fill-rule="nonzero"/></g><path fill="#f779b2" d="M 110.714844 30.617188 L 110.714844 23.851562 L 115.210938 23.851562 L 115.210938 26.105469 L 117.457031 26.105469 L 117.457031 23.851562 L 121.953125 23.851562 L 121.953125 30.617188 L 117.457031 30.617188 L 117.457031 32.871094 L 115.210938 32.871094 L 115.210938 30.617188 Z M 110.714844 30.617188 " fill-opacity="1" fill-rule="nonzero"/><g clip-path="url(#18b2323e57)"><path fill="#b2a63b" d="M 29.730469 25.25 L 31.800781 25.25 L 31.800781 27.324219 L 29.730469 27.324219 Z M 43.515625 51.03125 L 45.585938 51.03125 L 45.585938 48.953125 L 43.515625 48.953125 Z M 120.292969 47.078125 L 122.363281 47.078125 L 122.363281 45.003906 L 120.292969 45.003906 Z M 120.292969 47.078125 " fill-opacity="1" fill-rule="nonzero"/></g><g fill="#000000" fill-opacity="0.4"><g transform="translate(55.718139, 43.348589)"><g><path d="M 0.671875 0 L 0.671875 -9.515625 L 2.03125 -9.515625 L 2.03125 -1.359375 L 7.46875 -1.359375 L 7.46875 0 Z M 0.671875 0 "/></g></g></g><g fill="#000000" fill-opacity="0.4"><g transform="translate(63.869872, 43.348589)"><g><path d="M 6.109375 -1.359375 L 6.109375 0 L 2.03125 0 L 2.03125 -1.359375 Z M 0.671875 -1.359375 L 0.671875 -8.15625 L 2.03125 -8.15625 L 2.03125 -1.359375 Z M 2.03125 -8.15625 L 2.03125 -9.515625 L 6.109375 -9.515625 L 6.109375 -8.15625 Z M 6.109375 -1.359375 L 6.109375 -8.15625 L 7.46875 -8.15625 L 7.46875 -1.359375 Z M 6.109375 -1.359375 "/></g></g></g><g fill="#000000" fill-opacity="0.4"><g transform="translate(72.021604, 43.348589)"><g><path d="M 6.109375 -5.4375 L 6.109375 -2.71875 L 4.75 -2.71875 L 4.75 -5.4375 Z M 0.671875 -5.4375 L 0.671875 -9.515625 L 2.03125 -9.515625 L 2.03125 -5.4375 Z M 2.03125 -2.71875 L 2.03125 -5.4375 L 3.390625 -5.4375 L 3.390625 -2.71875 Z M 3.390625 0 L 3.390625 -2.71875 L 4.75 -2.71875 L 4.75 0 Z M 6.109375 -5.4375 L 6.109375 -9.515625 L 7.46875 -9.515625 L 7.46875 -5.4375 Z M 6.109375 -5.4375 "/></g></g></g><g fill="#000000" fill-opacity="0.4"><g transform="translate(80.173336, 43.348589)"><g><path d="M 0.671875 0 L 0.671875 -9.515625 L 7.46875 -9.515625 L 7.46875 -8.15625 L 2.03125 -8.15625 L 2.03125 -5.4375 L 6.109375 -5.4375 L 6.109375 -4.078125 L 2.03125 -4.078125 L 2.03125 -1.359375 L 7.46875 -1.359375 L 7.46875 0 Z M 0.671875 0 "/></g></g></g><g fill="#000000" fill-opacity="0.4"><g transform="translate(88.325069, 43.348589)"><g><path d="M 0.671875 0 L 0.671875 -9.515625 L 6.109375 -9.515625 L 6.109375 -8.15625 L 2.03125 -8.15625 L 2.03125 -5.4375 L 6.109375 -5.4375 L 6.109375 -4.078125 L 4.75 -4.078125 L 4.75 -2.71875 L 3.390625 -2.71875 L 3.390625 -4.078125 L 2.03125 -4.078125 L 2.03125 0 Z M 4.75 -1.359375 L 4.75 -2.71875 L 6.109375 -2.71875 L 6.109375 -1.359375 Z M 6.109375 0 L 6.109375 -1.359375 L 7.46875 -1.359375 L 7.46875 0 Z M 6.109375 -5.4375 L 6.109375 -8.15625 L 7.46875 -8.15625 L 7.46875 -5.4375 Z M 6.109375 -5.4375 "/></g></g></g><g fill="#ff66c4" fill-opacity="1"><g transform="translate(54.685407, 42.315854)"><g><path d="M 0.671875 0 L 0.671875 -9.515625 L 2.03125 -9.515625 L 2.03125 -1.359375 L 7.46875 -1.359375 L 7.46875 0 Z M 0.671875 0 "/></g></g></g><g fill="#ff66c4" fill-opacity="1"><g transform="translate(62.83714, 42.315854)"><g><path d="M 6.109375 -1.359375 L 6.109375 0 L 2.03125 0 L 2.03125 -1.359375 Z M 0.671875 -1.359375 L 0.671875 -8.15625 L 2.03125 -8.15625 L 2.03125 -1.359375 Z M 2.03125 -8.15625 L 2.03125 -9.515625 L 6.109375 -9.515625 L 6.109375 -8.15625 Z M 6.109375 -1.359375 L 6.109375 -8.15625 L 7.46875 -8.15625 L 7.46875 -1.359375 Z M 6.109375 -1.359375 "/></g></g></g><g fill="#ff66c4" fill-opacity="1"><g transform="translate(70.988872, 42.315854)"><g><path d="M 6.109375 -5.4375 L 6.109375 -2.71875 L 4.75 -2.71875 L 4.75 -5.4375 Z M 0.671875 -5.4375 L 0.671875 -9.515625 L 2.03125 -9.515625 L 2.03125 -5.4375 Z M 2.03125 -2.71875 L 2.03125 -5.4375 L 3.390625 -5.4375 L 3.390625 -2.71875 Z M 3.390625 0 L 3.390625 -2.71875 L 4.75 -2.71875 L 4.75 0 Z M 6.109375 -5.4375 L 6.109375 -9.515625 L 7.46875 -9.515625 L 7.46875 -5.4375 Z M 6.109375 -5.4375 "/></g></g></g><g fill="#ff66c4" fill-opacity="1"><g transform="translate(79.140604, 42.315854)"><g><path d="M 0.671875 0 L 0.671875 -9.515625 L 7.46875 -9.515625 L 7.46875 -8.15625 L 2.03125 -8.15625 L 2.03125 -5.4375 L 6.109375 -5.4375 L 6.109375 -4.078125 L 2.03125 -4.078125 L 2.03125 -1.359375 L 7.46875 -1.359375 L 7.46875 0 Z M 0.671875 0 "/></g></g></g><g fill="#ff66c4" fill-opacity="1"><g transform="translate(87.292337, 42.315854)"><g><path d="M 0.671875 0 L 0.671875 -9.515625 L 6.109375 -9.515625 L 6.109375 -8.15625 L 2.03125 -8.15625 L 2.03125 -5.4375 L 6.109375 -5.4375 L 6.109375 -4.078125 L 4.75 -4.078125 L 4.75 -2.71875 L 3.390625 -2.71875 L 3.390625 -4.078125 L 2.03125 -4.078125 L 2.03125 0 Z M 4.75 -1.359375 L 4.75 -2.71875 L 6.109375 -2.71875 L 6.109375 -1.359375 Z M 6.109375 0 L 6.109375 -1.359375 L 7.46875 -1.359375 L 7.46875 0 Z M 6.109375 -5.4375 L 6.109375 -8.15625 L 7.46875 -8.15625 L 7.46875 -5.4375 Z M 6.109375 -5.4375 "/></g></g></g></svg>